<svg width="18" height="20" viewBox="0 0 18 20" fill="none" xmlns="http://www.w3.org/2000/svg">
<path d="M14.81 2.47C14.73 2.47 14.65 2.45 14.58 2.41C12.66 1.42 11 1 9.00999 1C7.02999 1 5.14999 1.47 3.43999 2.41C3.19999 2.54 2.89999 2.45 2.75999 2.21C2.69762 2.09305 2.68363 1.95629 2.72103 1.82913C2.75843 1.70197 2.84423 1.59457 2.95999 1.53C4.81999 0.52 6.85999 0 9.00999 0C11.14 0 13 0.47 15.04 1.52C15.29 1.65 15.38 1.95 15.25 2.19C15.2104 2.27336 15.1482 2.34387 15.0703 2.3934C14.9925 2.44294 14.9023 2.46949 14.81 2.47ZM0.49999 7.72C0.407811 7.72086 0.317196 7.69617 0.238196 7.64866C0.159195 7.60116 0.0948969 7.5327 0.0524335 7.45088C0.00996998 7.36906 -0.00899916 7.27708 -0.00236992 7.18514C0.00425932 7.09319 0.0362278 7.00488 0.0899896 6.93C1.07999 5.53 2.33999 4.43 3.83999 3.66C6.97999 2.04 11 2.03 14.15 3.65C15.65 4.42 16.91 5.51 17.9 6.9C17.9384 6.95374 17.9657 7.01455 17.9804 7.07891C17.9952 7.14328 17.997 7.20993 17.9859 7.27501C17.9747 7.34009 17.9508 7.40232 17.9154 7.4581C17.8801 7.51388 17.8341 7.56211 17.78 7.6C17.55 7.76 17.24 7.71 17.08 7.48C16.2043 6.24038 15.041 5.23156 13.69 4.54C10.82 3.07 7.14999 3.07 4.28999 4.55C2.92999 5.25 1.78999 6.25 0.88999 7.51C0.80999 7.65 0.65999 7.72 0.49999 7.72ZM6.74999 19.79C6.68441 19.7908 6.6194 19.7779 6.55912 19.752C6.49884 19.7262 6.44463 19.688 6.39999 19.64C5.52999 18.77 5.05999 18.21 4.38999 17C3.69999 15.77 3.33999 14.27 3.33999 12.66C3.33999 9.69 5.87999 7.27 8.99999 7.27C12.12 7.27 14.66 9.69 14.66 12.66C14.66 12.94 14.44 13.16 14.16 13.16C13.88 13.16 13.66 12.94 13.66 12.66C13.66 10.24 11.57 8.27 8.99999 8.27C6.42999 8.27 4.33999 10.24 4.33999 12.66C4.33999 14.1 4.65999 15.43 5.26999 16.51C5.90999 17.66 6.34999 18.15 7.11999 18.93C7.30999 19.13 7.30999 19.44 7.11999 19.64C7.00999 19.74 6.87999 19.79 6.74999 19.79ZM13.92 17.94C12.73 17.94 11.68 17.64 10.82 17.05C9.32999 16.04 8.43999 14.4 8.43999 12.66C8.43999 12.38 8.65999 12.16 8.93999 12.16C9.21999 12.16 9.43999 12.38 9.43999 12.66C9.43999 14.07 10.16 15.4 11.38 16.22C12.09 16.7 12.92 16.93 13.92 16.93C14.16 16.93 14.56 16.9 14.96 16.83C15.23 16.78 15.49 16.96 15.54 17.24C15.59 17.51 15.41 17.77 15.13 17.82C14.56 17.93 14.06 17.94 13.92 17.94ZM11.91 20C11.87 20 11.82 19.99 11.78 19.98C10.19 19.54 9.14999 18.95 8.05999 17.88C7.36927 17.198 6.82157 16.385 6.44896 15.4887C6.07634 14.5923 5.88631 13.6307 5.88999 12.66C5.88999 11.04 7.26999 9.72 8.96999 9.72C10.67 9.72 12.05 11.04 12.05 12.66C12.05 13.73 12.98 14.6 14.13 14.6C15.28 14.6 16.21 13.73 16.21 12.66C16.21 8.89 12.96 5.83 8.95999 5.83C6.11999 5.83 3.51999 7.41 2.34999 9.86C1.95999 10.67 1.75999 11.62 1.75999 12.66C1.75999 13.44 1.82999 14.67 2.42999 16.27C2.52999 16.53 2.39999 16.82 2.13999 16.91C1.87999 17.01 1.58999 16.87 1.49999 16.62C1.01813 15.3553 0.770755 14.0134 0.76999 12.66C0.76999 11.46 0.99999 10.37 1.44999 9.42C2.77999 6.63 5.72999 4.82 8.95999 4.82C13.51 4.82 17.21 8.33 17.21 12.65C17.21 14.27 15.83 15.59 14.13 15.59C12.43 15.59 11.05 14.27 11.05 12.65C11.05 11.58 10.12 10.71 8.96999 10.71C7.81999 10.71 6.88999 11.58 6.88999 12.65C6.88999 14.36 7.54999 15.96 8.75999 17.16C9.70999 18.1 10.62 18.62 12.03 19.01C12.3 19.08 12.45 19.36 12.38 19.62C12.33 19.85 12.12 20 11.91 20Z" fill="#444444"/>
</svg>
